<mxfile host="app.diagrams.net" modified="2023-10-18T05:04:58.881Z" agent="Mozilla/5.0 (Macintosh; Intel Mac OS X 10_15_7) AppleWebKit/537.36 (KHTML, like Gecko) Chrome/117.0.0.0 Safari/537.36" etag="_bNPhsIFY8JlmK0g2Sr5" version="22.0.4" type="device">
  <diagram name="Page-1" id="fdHzNqX_9kaatIM1AlEE">
    <mxGraphModel dx="1026" dy="654" grid="1" gridSize="10" guides="1" tooltips="1" connect="1" arrows="1" fold="1" page="1" pageScale="1" pageWidth="827" pageHeight="1169" math="0" shadow="0">
      <root>
        <mxCell id="0" />
        <mxCell id="1" parent="0" />
        <mxCell id="U77RJCooef6Q8jjJBlMa-1" value="" style="rounded=0;whiteSpace=wrap;html=1;" vertex="1" parent="1">
          <mxGeometry x="334" y="240" width="160" height="80" as="geometry" />
        </mxCell>
        <mxCell id="U77RJCooef6Q8jjJBlMa-2" value="Arduino UNO R3" style="text;html=1;strokeColor=none;fillColor=none;align=center;verticalAlign=middle;whiteSpace=wrap;rounded=0;" vertex="1" parent="1">
          <mxGeometry x="360" y="265" width="110" height="30" as="geometry" />
        </mxCell>
        <mxCell id="U77RJCooef6Q8jjJBlMa-3" value="" style="rounded=0;whiteSpace=wrap;html=1;" vertex="1" parent="1">
          <mxGeometry x="354" y="100" width="120" height="80" as="geometry" />
        </mxCell>
        <mxCell id="U77RJCooef6Q8jjJBlMa-4" value="ESP8266" style="text;html=1;strokeColor=none;fillColor=none;align=center;verticalAlign=middle;whiteSpace=wrap;rounded=0;" vertex="1" parent="1">
          <mxGeometry x="369" y="125" width="90" height="30" as="geometry" />
        </mxCell>
        <mxCell id="U77RJCooef6Q8jjJBlMa-8" value="" style="group" vertex="1" connectable="0" parent="1">
          <mxGeometry x="320" y="500" width="200" height="60" as="geometry" />
        </mxCell>
        <mxCell id="U77RJCooef6Q8jjJBlMa-5" value="" style="rounded=0;whiteSpace=wrap;html=1;" vertex="1" parent="U77RJCooef6Q8jjJBlMa-8">
          <mxGeometry y="-30" width="200" height="60" as="geometry" />
        </mxCell>
        <mxCell id="U77RJCooef6Q8jjJBlMa-7" value="LCD 16 * 2" style="text;html=1;strokeColor=none;fillColor=none;align=center;verticalAlign=middle;whiteSpace=wrap;rounded=0;" vertex="1" parent="U77RJCooef6Q8jjJBlMa-8">
          <mxGeometry x="40" y="-15" width="120" height="30" as="geometry" />
        </mxCell>
        <mxCell id="U77RJCooef6Q8jjJBlMa-10" value="DHT 22" style="shape=or;whiteSpace=wrap;html=1;direction=north;" vertex="1" parent="1">
          <mxGeometry x="600" y="250" width="80" height="60" as="geometry" />
        </mxCell>
        <mxCell id="U77RJCooef6Q8jjJBlMa-13" value="" style="shape=flexArrow;endArrow=classic;html=1;rounded=0;entryX=0.5;entryY=0;entryDx=0;entryDy=0;" edge="1" parent="1" target="U77RJCooef6Q8jjJBlMa-1">
          <mxGeometry width="50" height="50" relative="1" as="geometry">
            <mxPoint x="414" y="180" as="sourcePoint" />
            <mxPoint x="414.5" y="230" as="targetPoint" />
          </mxGeometry>
        </mxCell>
        <mxCell id="U77RJCooef6Q8jjJBlMa-15" value="" style="shape=flexArrow;endArrow=classic;html=1;rounded=0;" edge="1" parent="1">
          <mxGeometry width="50" height="50" relative="1" as="geometry">
            <mxPoint x="640" y="310" as="sourcePoint" />
            <mxPoint x="494" y="290" as="targetPoint" />
            <Array as="points">
              <mxPoint x="640" y="380" />
              <mxPoint x="590" y="380" />
              <mxPoint x="590" y="340" />
              <mxPoint x="550" y="340" />
              <mxPoint x="550" y="290" />
            </Array>
          </mxGeometry>
        </mxCell>
        <mxCell id="U77RJCooef6Q8jjJBlMa-16" value="" style="shape=flexArrow;endArrow=classic;html=1;rounded=0;endWidth=6;endSize=7.33;" edge="1" parent="1">
          <mxGeometry width="50" height="50" relative="1" as="geometry">
            <mxPoint x="414" y="320" as="sourcePoint" />
            <mxPoint x="414" y="380" as="targetPoint" />
            <Array as="points">
              <mxPoint x="414" y="340" />
            </Array>
          </mxGeometry>
        </mxCell>
        <mxCell id="U77RJCooef6Q8jjJBlMa-17" value="&lt;h1&gt;ESP8266&lt;/h1&gt;&lt;div&gt;ESP8266 for connecting wifi and fetching data from Openweatherapi&lt;/div&gt;" style="text;html=1;strokeColor=none;fillColor=none;spacing=5;spacingTop=-20;whiteSpace=wrap;overflow=hidden;rounded=0;" vertex="1" parent="1">
          <mxGeometry x="130" y="60" width="190" height="100" as="geometry" />
        </mxCell>
        <mxCell id="U77RJCooef6Q8jjJBlMa-21" value="" style="group" vertex="1" connectable="0" parent="1">
          <mxGeometry x="400" y="380" width="30" height="30" as="geometry" />
        </mxCell>
        <mxCell id="U77RJCooef6Q8jjJBlMa-18" value="" style="whiteSpace=wrap;html=1;aspect=fixed;" vertex="1" parent="U77RJCooef6Q8jjJBlMa-21">
          <mxGeometry width="30" height="30" as="geometry" />
        </mxCell>
        <mxCell id="U77RJCooef6Q8jjJBlMa-19" value="" style="ellipse;whiteSpace=wrap;html=1;aspect=fixed;" vertex="1" parent="U77RJCooef6Q8jjJBlMa-21">
          <mxGeometry x="9" y="10" width="10" height="10" as="geometry" />
        </mxCell>
        <mxCell id="U77RJCooef6Q8jjJBlMa-23" value="" style="shape=flexArrow;endArrow=classic;html=1;rounded=0;endWidth=6;endSize=7.33;" edge="1" parent="1">
          <mxGeometry width="50" height="50" relative="1" as="geometry">
            <mxPoint x="414" y="410" as="sourcePoint" />
            <mxPoint x="414" y="470" as="targetPoint" />
            <Array as="points">
              <mxPoint x="414" y="430" />
            </Array>
          </mxGeometry>
        </mxCell>
        <mxCell id="U77RJCooef6Q8jjJBlMa-25" value="&lt;h1&gt;DHT 22&lt;/h1&gt;&lt;div&gt;Use for Current temp and humidity&lt;/div&gt;" style="text;html=1;strokeColor=none;fillColor=none;spacing=5;spacingTop=-20;whiteSpace=wrap;overflow=hidden;rounded=0;" vertex="1" parent="1">
          <mxGeometry x="580" y="110" width="190" height="80" as="geometry" />
        </mxCell>
        <mxCell id="U77RJCooef6Q8jjJBlMa-26" value="&lt;h1&gt;Arduino UNO R3&lt;/h1&gt;&lt;div&gt;Reciving data from ESP8266,Reciving data from DHT 22,Show Output through LCD Display&lt;/div&gt;" style="text;html=1;strokeColor=none;fillColor=none;spacing=5;spacingTop=-20;whiteSpace=wrap;overflow=hidden;rounded=0;" vertex="1" parent="1">
          <mxGeometry x="80" y="210" width="200" height="120" as="geometry" />
        </mxCell>
        <mxCell id="U77RJCooef6Q8jjJBlMa-27" value="&lt;h1&gt;PushButton&lt;/h1&gt;&lt;div&gt;When we click button,it will show Time,Current Temp,Upcoming temp Orderly&lt;/div&gt;" style="text;html=1;strokeColor=none;fillColor=none;spacing=5;spacingTop=-20;whiteSpace=wrap;overflow=hidden;rounded=0;" vertex="1" parent="1">
          <mxGeometry x="90" y="360" width="190" height="120" as="geometry" />
        </mxCell>
        <mxCell id="U77RJCooef6Q8jjJBlMa-28" value="&lt;h1&gt;LCD Display 16*2&lt;/h1&gt;&lt;div&gt;Showing output&lt;/div&gt;" style="text;html=1;strokeColor=none;fillColor=none;spacing=5;spacingTop=-20;whiteSpace=wrap;overflow=hidden;rounded=0;" vertex="1" parent="1">
          <mxGeometry x="560" y="490" width="220" height="70" as="geometry" />
        </mxCell>
        <mxCell id="U77RJCooef6Q8jjJBlMa-29" value="" style="endArrow=classic;html=1;rounded=0;entryX=0.99;entryY=0.65;entryDx=0;entryDy=0;entryPerimeter=0;" edge="1" parent="1" target="U77RJCooef6Q8jjJBlMa-26">
          <mxGeometry width="50" height="50" relative="1" as="geometry">
            <mxPoint x="330" y="290" as="sourcePoint" />
            <mxPoint x="440" y="310" as="targetPoint" />
          </mxGeometry>
        </mxCell>
        <mxCell id="U77RJCooef6Q8jjJBlMa-30" value="" style="endArrow=classic;html=1;rounded=0;entryX=0.989;entryY=0.4;entryDx=0;entryDy=0;entryPerimeter=0;" edge="1" parent="1" target="U77RJCooef6Q8jjJBlMa-27">
          <mxGeometry width="50" height="50" relative="1" as="geometry">
            <mxPoint x="400" y="390" as="sourcePoint" />
            <mxPoint x="330" y="400" as="targetPoint" />
          </mxGeometry>
        </mxCell>
        <mxCell id="U77RJCooef6Q8jjJBlMa-31" value="" style="endArrow=classic;html=1;rounded=0;" edge="1" parent="1">
          <mxGeometry width="50" height="50" relative="1" as="geometry">
            <mxPoint x="520" y="510" as="sourcePoint" />
            <mxPoint x="560" y="510" as="targetPoint" />
          </mxGeometry>
        </mxCell>
        <mxCell id="U77RJCooef6Q8jjJBlMa-32" value="" style="endArrow=classic;html=1;rounded=0;" edge="1" parent="1">
          <mxGeometry width="50" height="50" relative="1" as="geometry">
            <mxPoint x="639.5" y="250" as="sourcePoint" />
            <mxPoint x="640" y="200" as="targetPoint" />
          </mxGeometry>
        </mxCell>
        <mxCell id="U77RJCooef6Q8jjJBlMa-33" value="" style="endArrow=classic;html=1;rounded=0;" edge="1" parent="1">
          <mxGeometry width="50" height="50" relative="1" as="geometry">
            <mxPoint x="354" y="160" as="sourcePoint" />
            <mxPoint x="294" y="160" as="targetPoint" />
          </mxGeometry>
        </mxCell>
      </root>
    </mxGraphModel>
  </diagram>
</mxfile>
